<?xml version="1.0" encoding="UTF-8" standalone="no"?>
<!-- Created with Inkscape (http://www.inkscape.org/) -->

<svg
   xmlns:dc="http://purl.org/dc/elements/1.1/"
   xmlns:cc="http://creativecommons.org/ns#"
   xmlns:rdf="http://www.w3.org/1999/02/22-rdf-syntax-ns#"
   xmlns:svg="http://www.w3.org/2000/svg"
   xmlns="http://www.w3.org/2000/svg"
   xmlns:xlink="http://www.w3.org/1999/xlink"
   xmlns:sodipodi="http://sodipodi.sourceforge.net/DTD/sodipodi-0.dtd"
   xmlns:inkscape="http://www.inkscape.org/namespaces/inkscape"
   width="78"
   height="78"
   id="svg3073"
   version="1.1"
   inkscape:version="0.48.2 r9819"
   sodipodi:docname="contactLaunch.svg">
  <sodipodi:namedview
     id="base"
     pagecolor="#ffffff"
     bordercolor="#666666"
     borderopacity="1.0"
     inkscape:pageopacity="0.0"
     inkscape:pageshadow="2"
     inkscape:zoom="1.979899"
     inkscape:cx="33.118186"
     inkscape:cy="-17.22867"
     inkscape:document-units="px"
     inkscape:current-layer="layer1"
     showgrid="false"
     inkscape:window-width="1280"
     inkscape:window-height="776"
     inkscape:window-x="0"
     inkscape:window-y="24"
     inkscape:window-maximized="1"
     fit-margin-top="0"
     fit-margin-left="0"
     fit-margin-right="0"
     fit-margin-bottom="0" />
  <defs
     id="defs3075">
    <linearGradient
       id="linearGradient10194">
      <stop
         style="stop-color:#ffffff;stop-opacity:1;"
         offset="0"
         id="stop10196" />
      <stop
         style="stop-color:#707070;stop-opacity:1;"
         offset="1"
         id="stop10198" />
    </linearGradient>
    <filter
       color-interpolation-filters="sRGB"
       id="hicg_drop_shadow">
      <feOffset
         in="SourceAlpha"
         dx="0"
         dy="4"
         id="feOffset3222" />
      <feGaussianBlur
         stdDeviation="4"
         id="feGaussianBlur3224" />
      <feColorMatrix
         type="matrix"
         values="1 0 0 0 0  0 1 0 0 0  0 0 1 0 0  0 0 0 0.5 0"
         result="shadow"
         id="feColorMatrix3226" />
      <feBlend
         in="SourceGraphic"
         in2="shadow"
         mode="normal"
         id="feBlend3228" />
    </filter>
    <linearGradient
       id="hicg_overlay_grad"
       gradientUnits="userSpaceOnUse"
       x1="39.9995"
       y1="5.1816001"
       x2="39.9995"
       y2="58.801899">
      <stop
         offset="0"
         style="stop-color:#FFFFFF"
         id="stop3217" />
      <stop
         offset="1"
         style="stop-color:#000000"
         id="stop3219" />
    </linearGradient>
    <filter
       color-interpolation-filters="sRGB"
       y="-0.25"
       x="-0.25"
       height="1.5"
       width="1.5"
       inkscape:label="Drop shadow"
       id="filter3416">
      <feGaussianBlur
         result="blur"
         stdDeviation="7"
         in="SourceAlpha"
         id="feGaussianBlur3418" />
      <feColorMatrix
         values="1 0 0 0 0 0 1 0 0 0 0 0 1 0 0 0 0 0 0.5 0 "
         type="matrix"
         result="bluralpha"
         id="feColorMatrix3420" />
      <feOffset
         result="offsetBlur"
         dy="4"
         dx="4"
         in="bluralpha"
         id="feOffset3422" />
      <feMerge
         id="feMerge3424">
        <feMergeNode
           in="offsetBlur"
           id="feMergeNode3426" />
        <feMergeNode
           in="SourceGraphic"
           id="feMergeNode3428" />
      </feMerge>
    </filter>
    <linearGradient
       y2="-620.16888"
       x2="341.3418"
       y1="-620.16888"
       x1="270.08011"
       gradientTransform="matrix(1,0,0,-1,-235.1638,-561.4733)"
       gradientUnits="userSpaceOnUse"
       id="linearGradient3056"
       xlink:href="#SVGID_4_"
       inkscape:collect="always" />
    <linearGradient
       y2="-628.84961"
       x2="296.7822"
       y1="-628.84961"
       x1="296.7822"
       gradientTransform="matrix(1,0,0,-1,-235.1638,-561.4733)"
       gradientUnits="userSpaceOnUse"
       id="linearGradient3058"
       xlink:href="#SVGID_5_"
       inkscape:collect="always" />
    <linearGradient
       y2="-581.22461"
       x2="305.43951"
       y1="-632.83301"
       x1="305.43951"
       gradientTransform="matrix(1,0,0,-1,-235.1638,-561.4733)"
       gradientUnits="userSpaceOnUse"
       id="linearGradient3060"
       xlink:href="#SVGID_6_"
       inkscape:collect="always" />
    <linearGradient
       y2="-623.70898"
       x2="306.03131"
       y1="-653.63129"
       x1="306.03131"
       gradientTransform="matrix(1,0,0,-1,-235.1638,-561.4733)"
       gradientUnits="userSpaceOnUse"
       id="linearGradient3062"
       xlink:href="#SVGID_7_"
       inkscape:collect="always" />
    <linearGradient
       y2="-629.50983"
       x2="315.00491"
       y1="-629.50983"
       x1="294.48239"
       gradientTransform="matrix(1,0,0,-1,-235.1638,-561.4733)"
       gradientUnits="userSpaceOnUse"
       id="linearGradient3064"
       xlink:href="#SVGID_8_"
       inkscape:collect="always" />
    <linearGradient
       y2="-582.07233"
       x2="305.4375"
       y1="-630.5625"
       x1="305.4375"
       gradientTransform="matrix(1,0,0,-1,-235.1638,-561.4733)"
       gradientUnits="userSpaceOnUse"
       id="linearGradient3066"
       xlink:href="#SVGID_9_"
       inkscape:collect="always" />
    <linearGradient
       y2="-582.0752"
       x2="301.58109"
       y1="-601.67578"
       x1="301.58109"
       gradientTransform="matrix(1,0,0,-1,-235.1638,-561.4733)"
       gradientUnits="userSpaceOnUse"
       id="linearGradient3068"
       xlink:href="#SVGID_10_"
       inkscape:collect="always" />
    <linearGradient
       y2="58.801899"
       x2="39.9995"
       y1="5.1816001"
       x1="39.9995"
       gradientUnits="userSpaceOnUse"
       id="linearGradient3072"
       xlink:href="#hicg_overlay_grad"
       inkscape:collect="always" />
    <clipPath
       id="clipPath">
      <path
         transform="translate(366.71431,279.07647)"
         inkscape:connector-curvature="0"
         id="path5516"
         d="M -11.964286,36.214286 C 3.3113053,21.183101 30.711738,18.788903 50.892857,17.107143 70.933688,15.437074 90.57554,11.72053 110.71429,10.5 127.69235,9.4710266 146.45401,8.943903 162.67857,3.5357143"
         style="fill:none;stroke:#000000;stroke-width:1px;stroke-linecap:butt;stroke-linejoin:miter;stroke-opacity:1" />
    </clipPath>
    <filter
       y="-0.5"
       x="-0.5"
       width="10.0"
       height="10.0"
       id="filter">
      <feGaussianBlur
         id="feGaussianBlur8272"
         stdDeviation="8.60000038147" />
    </filter>
    <linearGradient
       inkscape:collect="always"
       xlink:href="#linearGradient10194"
       id="linearGradient10200"
       x1="487.96432"
       y1="308.14789"
       x2="487.96432"
       y2="352.43506"
       gradientUnits="userSpaceOnUse"
       gradientTransform="matrix(0.93212669,0,0,1.2420383,34.415165,-83.628621)" />
    <filter
       id="filter10328"
       inkscape:label="Drop shadow"
       width="1.5"
       height="10"
       x="-0.25"
       y="-5">
      <feGaussianBlur
         id="feGaussianBlur10330"
         in="SourceAlpha"
         stdDeviation="1.6000000000000001"
         result="blur" />
      <feColorMatrix
         id="feColorMatrix10332"
         result="bluralpha"
         type="matrix"
         values="1 0 0 0 0 0 1 0 0 0 0 0 1 0 0 0 0 0 1 0 "
         stdDeviation="2" />
      <feOffset
         id="feOffset10334"
         in="bluralpha"
         dx="0"
         dy="-1.3999999999999999"
         result="offsetBlur" />
      <feMerge
         id="feMerge10336">
        <feMergeNode
           id="feMergeNode10338"
           in="offsetBlur" />
        <feMergeNode
           id="feMergeNode10340"
           in="SourceGraphic" />
      </feMerge>
    </filter>
  </defs>
  <metadata
     id="metadata3078">
    <rdf:RDF>
      <cc:Work
         rdf:about="">
        <dc:format>image/svg+xml</dc:format>
        <dc:type
           rdf:resource="http://purl.org/dc/dcmitype/StillImage" />
        <dc:title></dc:title>
      </cc:Work>
    </rdf:RDF>
  </metadata>
  <g
     transform="translate(-366.71431,-279.07647)"
     id="layer1"
     inkscape:groupmode="layer"
     inkscape:label="Layer 1">
    <g
       transform="translate(365.71431,278.07647)"
       id="g3230">
      <path
         d="M 79,40 C 79,68.893 68.895,79 40,79 11.105,79 1,68.893 1,40 1,11.106 11.105,1 40,1 68.895,1 79,11.106 79,40 z"
         id="hicg_background"
         inkscape:connector-curvature="0"
         style="fill:#dd0000" />
      <path
         d="M 39.999,1 C 11.105,1 1,11.106 1,40 1,68.893 11.105,79 39.999,79 68.896,79 79,68.893 79,40 79,11.106 68.896,1 39.999,1 z m 0,77.025 C 11.57,78.025 1.976,68.43 1.976,40 c 0,-28.429 9.595,-38.024 38.023,-38.024 28.43,0 38.024,9.596 38.024,38.024 0,28.43 -9.594,38.025 -38.024,38.025 z"
         id="hicg_highlight"
         inkscape:connector-curvature="0"
         style="opacity:0.25;fill:#ffffff" />
      <path
         d="M 78.977,40 C 78.977,68.893 68.877,79 40,79 11.123,79 1.023,68.893 1.023,40 1.023,11.106 11.123,1 40,1 68.877,1 78.977,11.106 78.977,40 z"
         id="hicg_overlay"
         inkscape:connector-curvature="0"
         style="opacity:0.4;fill:url(#hicg_overlay_grad)" />
    </g>
    <g
       inkscape:tile-y0="288.9079"
       inkscape:tile-x0="378.01922"
       inkscape:tile-h="19.78922"
       inkscape:tile-w="19.476285"
       inkscape:tile-cy="298.80251"
       inkscape:tile-cx="387.75737"
       style="filter:url(#filter3416)"
       transform="matrix(0.22868386,0,0,0.22868386,372.14644,284.7129)"
       id="g3171">
      <g
         id="g3173">
        <linearGradient
           y2="-620.16888"
           y1="-620.16888"
           x2="341.3418"
           x1="270.08011"
           id="SVGID_4_"
           gradientUnits="userSpaceOnUse"
           gradientTransform="matrix(1,0,0,-1,-235.1638,-561.4733)">
          <stop
             id="stop3176"
             stop-color="#808184"
             offset="0" />
          <stop
             id="stop3178"
             stop-color="#404041"
             offset="1" />
        </linearGradient>
        <path
           id="path3180"
           d="m 98.087,78.501 c -3.678,-1.6 -7.762,-3.443 -11.438,-4.999 -1.073,-0.305 -2.101,-0.583 -3.179,-0.89 -1.22,-0.869 -2.453,-3.828 -3.133,-5.274 -0.671,-0.079 -1.312,-0.191 -1.988,-0.299 0.107,-2.244 1.45,-2.359 1.988,-4.091 0.464,-1.519 0.049,-3.509 0.817,-4.896 0.501,-0.988 1.688,-0.997 2.27,-1.843 0.549,-0.743 0.875,-2.084 1.044,-3.024 0.329,-1.692 0.561,-4.033 -0.21,-5.713 -0.443,-0.977 -0.742,-1.08 -0.865,-2.239 -0.144,-1.432 0.42,-6.098 0.439,-7.103 0.046,-2.609 0,-2.823 -0.649,-5.361 0,0 -0.736,-2.306 -1.896,-3.003 l -2.352,-0.423 -1.44,-1.378 c -5.857,-3.66 -12.101,-1.086 -15.444,0.304 -4.83,1.61 -7.871,6.45 -5.752,16.774 0.368,1.776 -0.943,2.567 -0.856,3.524 0.199,2.124 0.229,7.184 2.177,8.427 0.172,0.121 1.553,0.474 1.547,0.373 0.194,2.063 0.371,4.107 0.569,6.167 0.481,1.36 -1.4,8.207 -2.663,9.086 -1.042,0.298 -2.09,0.59 -3.123,0.874 -3.7,1.561 -7.773,3.41 -11.456,5 -3.184,1.376 -6.153,0.67 -7.574,3.767 1.896,1.647 3.248,4.188 5.229,4.787 20.063,5.702 40.123,5.702 60.188,0 2.009,-0.604 3.934,-2.63 5.845,-4.305 -1.432,-3.046 -4.929,-2.879 -8.095,-4.242 z"
           inkscape:connector-curvature="0"
           style="fill:url(#linearGradient3056)" />
      </g>
      <linearGradient
         y2="-628.84961"
         y1="-628.84961"
         x2="296.7822"
         x1="296.7822"
         id="SVGID_5_"
         gradientUnits="userSpaceOnUse"
         gradientTransform="matrix(1,0,0,-1,-235.1638,-561.4733)">
        <stop
           id="stop3183"
           stop-color="#bbbdbf"
           offset="0" />
        <stop
           id="stop3185"
           stop-color="#bbbdbf"
           offset="0.017" />
        <stop
           id="stop3187"
           stop-color="#e6e7e8"
           offset="0.3096" />
        <stop
           id="stop3189"
           stop-color="#f1f1f2"
           offset="0.5212" />
        <stop
           id="stop3191"
           stop-color="#ffffff"
           offset="1" />
      </linearGradient>
      <path
         id="path3193"
         d="M 61.622,67.385"
         inkscape:connector-curvature="0"
         style="fill:url(#linearGradient3058)" />
      <linearGradient
         y2="-581.22461"
         y1="-632.83301"
         x2="305.43951"
         x1="305.43951"
         id="SVGID_6_"
         gradientUnits="userSpaceOnUse"
         gradientTransform="matrix(1,0,0,-1,-235.1638,-561.4733)">
        <stop
           id="stop3196"
           stop-color="#808184"
           offset="0" />
        <stop
           id="stop3198"
           stop-color="#404041"
           offset="1" />
      </linearGradient>
      <path
         id="path3200"
         d="m 89.398,50.29 c -0.246,0.858 -1.061,1.294 -1.88,1.507 -0.828,3.072 -1.805,6.494 -3.317,9.35 l -3.967,4.058 C 79.926,65.55 79.47,66 78.922,66.493 c -0.03,0.021 -0.061,0.048 -0.087,0.074 -0.036,0.036 -0.075,0.071 -0.112,0.104 -1.257,1.102 -2.903,2.367 -4.292,3.123 -1.104,0.957 -2.8,1.573 -4.694,1.573 -2.163,0 -4.062,-0.797 -5.119,-1.992 -0.881,-0.567 -1.74,-1.231 -2.417,-1.867 -0.477,-0.448 -0.865,-0.872 -1.112,-1.239 l -3.917,-4.357 c 0,-0.008 -0.003,-0.012 -0.005,-0.016 -1.799,-3.253 -3.161,-6.748 -4.079,-10.339 -1.191,0.302 -1.926,-0.868 -2.142,-1.858 -0.708,-3.012 -0.87,-6.611 1.34,-9.077 -0.113,-4.355 0.342,-8.993 2.926,-12.691 2.855,-4.572 8.019,-7.4 13.353,-8.171 l 3.158,0 c 8.132,0.713 15.322,7.152 16.348,15.165 0.32,1.854 -0.165,3.825 0.271,5.645 2.08,2.752 2.115,6.565 1.056,9.72 z"
         inkscape:connector-curvature="0"
         style="fill:url(#linearGradient3060)" />
      <g
         id="g3202">
        <linearGradient
           y2="-623.70898"
           y1="-653.63129"
           x2="306.03131"
           x1="306.03131"
           id="SVGID_7_"
           gradientUnits="userSpaceOnUse"
           gradientTransform="matrix(1,0,0,-1,-235.1638,-561.4733)">
          <stop
             id="stop3205"
             stop-color="#bbbdbf"
             offset="0" />
          <stop
             id="stop3207"
             stop-color="#bbbdbf"
             offset="0.017" />
          <stop
             id="stop3209"
             stop-color="#e6e7e8"
             offset="0.3096" />
          <stop
             id="stop3211"
             stop-color="#f1f1f2"
             offset="0.5212" />
          <stop
             id="stop3213"
             stop-color="#ffffff"
             offset="1" />
        </linearGradient>
        <path
           id="path3215"
           d="m 106.182,82.743 c -1.91,1.677 -3.832,4.543 -5.845,5.146 -20.073,5.704 -40.114,5.704 -60.185,0 -1.991,-0.603 -2.704,-3.447 -4.591,-5.098 1.413,-3.088 3.752,-2.098 6.943,-3.46 3.663,-1.597 7.747,-3.455 11.437,-4.999 1.048,-0.288 2.092,-0.575 3.138,-0.891 1.257,-0.863 2.489,-3.82 3.169,-5.261 0,0 -0.026,-2.457 -0.498,-3.817 -0.081,-0.707 -0.132,-1.414 -0.21,-2.119 l 1.909,2.066 c 0.239,0.341 0.603,0.732 1.073,1.152 0.654,0.599 1.467,1.229 2.306,1.752 1.02,1.126 2.851,1.886 4.917,1.886 1.834,0 3.454,-0.576 4.528,-1.49 1.336,-0.708 2.905,-1.887 4.107,-2.935 0.054,-0.024 0.08,-0.049 0.133,-0.102 0.027,-0.024 0.053,-0.052 0.081,-0.052 0.52,-0.473 0.965,-0.891 1.257,-1.23 l 0.703,-0.707 c -0.024,0.417 -0.081,0.809 -0.211,1.203 -0.547,1.728 -0.679,4.318 0,4.395 0.682,1.439 1.913,4.397 3.113,5.26 1.1,0.314 2.12,0.576 3.193,0.89 3.666,1.571 7.772,3.404 11.435,5 3.168,1.361 6.656,0.375 8.098,3.411 z"
           inkscape:connector-curvature="0"
           style="fill:url(#linearGradient3062)" />
      </g>
      <linearGradient
         y2="-629.50983"
         y1="-629.50983"
         x2="315.00491"
         x1="294.48239"
         id="SVGID_8_"
         gradientUnits="userSpaceOnUse"
         gradientTransform="matrix(1,0,0,-1,-235.1638,-561.4733)">
        <stop
           id="stop3218"
           stop-color="#231f20"
           offset="0" />
        <stop
           id="stop3220"
           stopOpacity="0"
           stop-color="#231f20"
           offset="1" />
      </linearGradient>
      <path
         id="path3222"
         d="m 60.083,65.928 c 0.255,0.541 1.433,1.574 1.931,2.231 0.708,0.932 1.604,1.918 2.53,2.752 1.104,1.763 3.09,2.936 5.346,2.936 1.982,0 3.755,-0.905 4.909,-2.317 1.454,-1.115 3.177,-2.981 4.482,-4.605 0.042,-0.048 0.085,-0.102 0.123,-0.152 0.022,-0.042 0.055,-0.077 0.089,-0.107 0.566,-0.716 0.026,-2.867 0.351,-3.374 l -20.523,-1.047 0.762,3.683 z"
         inkscape:connector-curvature="0"
         style="fill:url(#linearGradient3064);fill-opacity:0.3;stroke-opacity:0.3" />
      <linearGradient
         y2="-582.07233"
         y1="-630.5625"
         x2="305.4375"
         x1="305.4375"
         id="SVGID_9_"
         gradientUnits="userSpaceOnUse"
         gradientTransform="matrix(1,0,0,-1,-235.1638,-561.4733)">
        <stop
           id="stop3225"
           stop-color="#ffffff"
           offset="0" />
        <stop
           id="stop3227"
           stop-color="#f1f1f2"
           offset="0.4788" />
        <stop
           id="stop3229"
           stop-color="#e6e7e8"
           offset="0.6904" />
        <stop
           id="stop3231"
           stop-color="#bbbdbf"
           offset="0.983" />
        <stop
           id="stop3233"
           stop-color="#bbbdbf"
           offset="1" />
      </linearGradient>
      <path
         id="path3235"
         d="m 88.663,49.292 c -0.235,0.81 -1.02,1.227 -1.804,1.409 -0.813,2.906 -1.754,6.099 -3.195,8.794 l -3.112,3.09 -0.704,0.706 c -0.293,0.339 -0.734,0.756 -1.257,1.229 -0.025,0 -0.05,0.026 -0.079,0.052 -0.055,0.05 -0.08,0.078 -0.132,0.102 -1.203,1.051 -2.774,2.227 -4.109,2.935 -1.072,0.914 -2.692,1.49 -4.529,1.49 -2.064,0 -3.896,-0.761 -4.916,-1.886 -0.837,-0.523 -1.65,-1.151 -2.305,-1.754 -0.469,-0.419 -0.835,-0.813 -1.073,-1.15 l -1.909,-2.067 -1.858,-2.04 c -1.729,-3.06 -3.037,-6.333 -3.926,-9.71 -1.149,0.263 -1.857,-0.81 -2.067,-1.753 -0.68,-2.826 -0.836,-6.2 1.283,-8.53 -0.105,-4.083 0.34,-8.453 2.827,-11.906 2.747,-4.29 7.694,-6.96 12.821,-7.694 l 3.036,0 c 7.823,0.68 14.735,6.726 15.726,14.262 0.316,1.728 -0.154,3.586 0.265,5.288 1.985,2.591 2.04,6.174 1.017,9.133 z"
         inkscape:connector-curvature="0"
         style="fill:url(#linearGradient3066)" />
      <linearGradient
         y2="-582.0752"
         y1="-601.67578"
         x2="301.58109"
         x1="301.58109"
         id="SVGID_10_"
         gradientUnits="userSpaceOnUse"
         gradientTransform="matrix(1,0,0,-1,-235.1638,-561.4733)">
        <stop
           id="stop3238"
           stop-color="#ffffff"
           offset="0" />
        <stop
           id="stop3240"
           stopOpacity="0"
           stop-color="#ffffff"
           offset="1" />
      </linearGradient>
      <path
         id="path3242"
         d="m 64.975,25.042 c 4.37,-1.674 9.722,-2.075 13.153,-0.734 l 1.743,-0.831 C 77.456,21.909 74.191,20.866 71.25,20.61 l -3.036,0 c -5.127,0.734 -9.67,3.404 -12.417,7.694 -2.282,3.172 -2.832,8.124 -2.826,11.906 l 1.5,-2.13 C 54.173,33.026 58.389,27.56 64.975,25.042 z"
         inkscape:connector-curvature="0"
         style="fill:url(#linearGradient3068)" />
    </g>
    <use
       height="1052.3622"
       width="744.09448"
       id="use3432"
       transform="translate(2.367194e-8,20.157763)"
       xlink:href="#g3171"
       inkscape:tiled-clone-of="#g3171"
       y="0"
       x="0" />
    <use
       height="1052.3622"
       width="744.09448"
       id="use3434"
       transform="translate(2.367194e-8,40.315525)"
       xlink:href="#g3171"
       inkscape:tiled-clone-of="#g3171"
       y="0"
       x="0" />
    <use
       height="1052.3622"
       width="744.09448"
       id="use3436"
       transform="translate(18.096194,0)"
       xlink:href="#g3171"
       inkscape:tiled-clone-of="#g3171"
       y="0"
       x="0" />
    <use
       height="1052.3622"
       width="744.09448"
       id="use3438"
       transform="translate(18.096194,20.157763)"
       xlink:href="#g3171"
       inkscape:tiled-clone-of="#g3171"
       y="0"
       x="0" />
    <use
       height="1052.3622"
       width="744.09448"
       id="use3440"
       transform="translate(18.096194,40.315525)"
       xlink:href="#g3171"
       inkscape:tiled-clone-of="#g3171"
       y="0"
       x="0" />
    <use
       height="1052.3622"
       width="744.09448"
       id="use3442"
       transform="translate(36.192389,0)"
       xlink:href="#g3171"
       inkscape:tiled-clone-of="#g3171"
       y="0"
       x="0" />
    <use
       height="1052.3622"
       width="744.09448"
       id="use3444"
       transform="translate(36.192389,20.157763)"
       xlink:href="#g3171"
       inkscape:tiled-clone-of="#g3171"
       y="0"
       x="0" />
    <use
       height="1052.3622"
       width="744.09448"
       id="use3446"
       transform="translate(36.192389,40.315525)"
       xlink:href="#g3171"
       inkscape:tiled-clone-of="#g3171"
       y="0"
       x="0" />
    <g
       id="g3064"
       transform="translate(448.57145,278.25504)"
       inkscape:export-filename="/home/qwazix/Documents/projects/mobilecrunch/icon80.png"
       inkscape:export-xdpi="92.307686"
       inkscape:export-ydpi="92.307686">
      <path
         style="fill:#fcbd0b;fill-opacity:1"
         inkscape:connector-curvature="0"
         id="path3066"
         d="M 79,40 C 79,68.893 68.895,79 40,79 11.105,79 1,68.893 1,40 1,11.106 11.105,1 40,1 68.895,1 79,11.106 79,40 z" />
      <path
         style="opacity:0.25;fill:#ffffff"
         inkscape:connector-curvature="0"
         id="path3068"
         d="M 39.999,1 C 11.105,1 1,11.106 1,40 1,68.893 11.105,79 39.999,79 68.896,79 79,68.893 79,40 79,11.106 68.896,1 39.999,1 z m 0,77.025 C 11.57,78.025 1.976,68.43 1.976,40 c 0,-28.429 9.595,-38.024 38.023,-38.024 28.43,0 38.024,9.596 38.024,38.024 0,28.43 -9.594,38.025 -38.024,38.025 z" />
      <path
         style="opacity:0.4;fill:url(#linearGradient3072)"
         inkscape:connector-curvature="0"
         id="path3070"
         d="M 78.977,40 C 78.977,68.893 68.877,79 40,79 11.123,79 1.023,68.893 1.023,40 1.023,11.106 11.123,1 40,1 68.877,1 78.977,11.106 78.977,40 z" />
    </g>
    <path
       id="path10182"
       style="fill:url(#linearGradient10200);fill-opacity:1;stroke:none"
       d="m 510.49889,335.25504 c -0.94275,-13.61156 5.45831,-25.28006 8.32256,-34.82142 -19.61905,0 -39.23808,0 -58.85713,0 2.86425,9.54136 9.26531,21.20986 8.32256,34.82142"
       inkscape:connector-curvature="0"
       sodipodi:nodetypes="cccc"
       inkscape:export-filename="/home/qwazix/Documents/projects/mobilecrunch/icon80.png"
       inkscape:export-xdpi="92.307686"
       inkscape:export-ydpi="92.307686" />
    <rect
       style="opacity:0.978;color:#000000;fill:#000000;fill-opacity:1;stroke:none;stroke-width:3.9000001;marker:none;visibility:visible;display:inline;overflow:visible;filter:url(#filter10328);enable-background:accumulate"
       id="rect10342"
       width="59.285706"
       height="2.1428549"
       x="459.57147"
       y="335.07648" />
    <text
       xml:space="preserve"
       style="font-size:3px;font-style:normal;font-variant:normal;font-weight:normal;font-stretch:normal;line-height:125%;letter-spacing:0px;word-spacing:0px;fill:#000000;fill-opacity:1;stroke:none;font-family:Ubuntu;-inkscape-font-specification:Ubuntu"
       x="490.96991"
       y="331.22119"
       id="text11112"
       sodipodi:linespacing="125%"
       inkscape:export-filename="/home/qwazix/Documents/projects/mobilecrunch/icon80.png"
       inkscape:export-xdpi="92.307686"
       inkscape:export-ydpi="92.307686"><tspan
         sodipodi:role="line"
         id="tspan11114"
         x="490.96991"
         y="331.22119"
         style="font-size:5px;fill:#000000">+30000</tspan></text>
    <text
       sodipodi:linespacing="125%"
       id="text11137"
       y="325.41281"
       x="487.68692"
       style="font-size:3px;font-style:normal;font-variant:normal;font-weight:normal;font-stretch:normal;line-height:125%;letter-spacing:0px;word-spacing:0px;fill:#000000;fill-opacity:1;stroke:none;font-family:Ubuntu;-inkscape-font-specification:Ubuntu"
       xml:space="preserve"
       inkscape:export-filename="/home/qwazix/Documents/projects/mobilecrunch/icon80.png"
       inkscape:export-xdpi="92.307686"
       inkscape:export-ydpi="92.307686"><tspan
         style="font-size:5.5px;fill:#000000"
         y="325.41281"
         x="487.68692"
         id="tspan11139"
         sodipodi:role="line">*131547</tspan></text>
    <text
       xml:space="preserve"
       style="font-size:3px;font-style:normal;font-variant:normal;font-weight:normal;font-stretch:normal;line-height:125%;letter-spacing:0px;word-spacing:0px;fill:#000000;fill-opacity:1;stroke:none;font-family:Ubuntu;-inkscape-font-specification:Ubuntu"
       x="485.16153"
       y="319.09937"
       id="text11141"
       sodipodi:linespacing="125%"
       inkscape:export-filename="/home/qwazix/Documents/projects/mobilecrunch/icon80.png"
       inkscape:export-xdpi="92.307686"
       inkscape:export-ydpi="92.307686"><tspan
         sodipodi:role="line"
         id="tspan11143"
         x="485.16153"
         y="319.09937"
         style="font-size:6px;fill:#000000">/5823093</tspan></text>
    <text
       sodipodi:linespacing="125%"
       id="text11145"
       y="312.28085"
       x="471.52448"
       style="font-size:3px;font-style:normal;font-variant:normal;font-weight:normal;font-stretch:normal;line-height:125%;letter-spacing:0px;word-spacing:0px;fill:#000000;fill-opacity:1;stroke:none;font-family:Ubuntu;-inkscape-font-specification:Ubuntu"
       xml:space="preserve"
       inkscape:export-filename="/home/qwazix/Documents/projects/mobilecrunch/icon80.png"
       inkscape:export-xdpi="92.307686"
       inkscape:export-ydpi="92.307686"><tspan
         style="font-size:7px;fill:#000000"
         y="312.28085"
         x="471.52448"
         id="tspan11147"
         sodipodi:role="line">-4289453092</tspan></text>
  </g>
</svg>
